{
    "asset" : {
        "generator" : "Khronos glTF Blender I/O v1.4.40",
        "version" : "2.0"
    },
    "scene" : 0,
    "scenes" : [
        {
            "name" : "Scene",
            "nodes" : [
                0
            ]
        }
    ],
    "nodes" : [
        {
            "mesh" : 0,
            "name" : "Lampshade.001",
            "translation" : [
                -1.8085771799087524,
                0.8369988203048706,
                -1.3418282270431519
            ]
        }
    ],
    "materials" : [
        {
            "doubleSided" : true,
            "name" : "Lampshade.001_material",
            "pbrMetallicRoughness" : {
                "baseColorFactor" : [
                    0.12668542563915253,
                    0.8000000715255737,
                    0.1203804463148117,
                    1
                ],
                "metallicFactor" : 0,
                "roughnessFactor" : 0.7096774578094482
            }
        },
        {
            "doubleSided" : true,
            "name" : "Lamp_base.001_material",
            "pbrMetallicRoughness" : {
                "baseColorFactor" : [
                    0.13545653223991394,
                    1,
                    0.08965048938989639,
                    1
                ],
                "metallicFactor" : 0.8129032254219055,
                "roughnessFactor" : 0.17419356107711792
            }
        }
    ],
    "meshes" : [
        {
            "name" : "Lampshade.001",
            "primitives" : [
                {
                    "attributes" : {
                        "POSITION" : 0,
                        "NORMAL" : 1
                    },
                    "indices" : 2,
                    "material" : 0
                },
                {
                    "attributes" : {
                        "POSITION" : 3,
                        "NORMAL" : 4
                    },
                    "indices" : 5,
                    "material" : 1
                }
            ]
        }
    ],
    "accessors" : [
        {
            "bufferView" : 0,
            "componentType" : 5126,
            "count" : 192,
            "max" : [
                0.17765367031097412,
                0.3328855037689209,
                0.17765331268310547
            ],
            "min" : [
                -0.1776520013809204,
                0.11081951856613159,
                -0.17765235900878906
            ],
            "type" : "VEC3"
        },
        {
            "bufferView" : 1,
            "componentType" : 5126,
            "count" : 192,
            "type" : "VEC3"
        },
        {
            "bufferView" : 2,
            "componentType" : 5123,
            "count" : 960,
            "type" : "SCALAR"
        },
        {
            "bufferView" : 3,
            "componentType" : 5126,
            "count" : 1922,
            "max" : [
                0.0937877893447876,
                0.08889031410217285,
                0.0937873125076294
            ],
            "min" : [
                -0.09378623962402344,
                -0.13262009620666504,
                -0.09378659725189209
            ],
            "type" : "VEC3"
        },
        {
            "bufferView" : 4,
            "componentType" : 5126,
            "count" : 1922,
            "type" : "VEC3"
        },
        {
            "bufferView" : 5,
            "componentType" : 5123,
            "count" : 11520,
            "type" : "SCALAR"
        }
    ],
    "bufferViews" : [
        {
            "buffer" : 0,
            "byteLength" : 2304,
            "byteOffset" : 0
        },
        {
            "buffer" : 0,
            "byteLength" : 2304,
            "byteOffset" : 2304
        },
        {
            "buffer" : 0,
            "byteLength" : 1920,
            "byteOffset" : 4608
        },
        {
            "buffer" : 0,
            "byteLength" : 23064,
            "byteOffset" : 6528
        },
        {
            "buffer" : 0,
            "byteLength" : 23064,
            "byteOffset" : 29592
        },
        {
            "buffer" : 0,
            "byteLength" : 23040,
            "byteOffset" : 52656
        }
    ],
    "buffers" : [
        {
            "byteLength" : 75696,
            "uri" : "data:application/octet-stream;base64,"
        }
    ]
}
