{
    "asset" : {
        "generator" : "Khronos glTF Blender I/O v1.4.40",
        "version" : "2.0"
    },
    "scene" : 0,
    "scenes" : [
        {
            "name" : "Scene",
            "nodes" : [
                0
            ]
        }
    ],
    "nodes" : [
        {
            "mesh" : 0,
            "name" : "Lampshade",
            "translation" : [
                -1.9637223482131958,
                0.8285266757011414,
                1.2924124002456665
            ]
        }
    ],
    "materials" : [
        {
            "doubleSided" : true,
            "name" : "Lampshade_material",
            "pbrMetallicRoughness" : {
                "baseColorFactor" : [
                    0.06970382481813431,
                    0.08061853051185608,
                    0.8000000715255737,
                    1
                ],
                "metallicFactor" : 0,
                "roughnessFactor" : 0.7806451320648193
            }
        },
        {
            "doubleSided" : true,
            "name" : "Lamp_base_material",
            "pbrMetallicRoughness" : {
                "baseColorFactor" : [
                    0.1414133757352829,
                    0.16349460184574127,
                    1,
                    1
                ],
                "metallicFactor" : 0.7290322780609131,
                "roughnessFactor" : 0.12903225421905518
            }
        }
    ],
    "meshes" : [
        {
            "name" : "Lampshade",
            "primitives" : [
                {
                    "attributes" : {
                        "POSITION" : 0,
                        "NORMAL" : 1
                    },
                    "indices" : 2,
                    "material" : 0
                },
                {
                    "attributes" : {
                        "POSITION" : 3,
                        "NORMAL" : 4
                    },
                    "indices" : 5,
                    "material" : 1
                }
            ]
        }
    ],
    "accessors" : [
        {
            "bufferView" : 0,
            "componentType" : 5126,
            "count" : 192,
            "max" : [
                0.19171929359436035,
                0.3592415452003479,
                0.19172072410583496
            ],
            "min" : [
                -0.1917206048965454,
                0.11959165334701538,
                -0.19171905517578125
            ],
            "type" : "VEC3"
        },
        {
            "bufferView" : 1,
            "componentType" : 5126,
            "count" : 192,
            "type" : "VEC3"
        },
        {
            "bufferView" : 2,
            "componentType" : 5123,
            "count" : 960,
            "type" : "SCALAR"
        },
        {
            "bufferView" : 3,
            "componentType" : 5126,
            "count" : 1922,
            "max" : [
                0.1012125015258789,
                0.09592670202255249,
                0.10121440887451172
            ],
            "min" : [
                -0.10121405124664307,
                -0.143124520778656,
                -0.1012125015258789
            ],
            "type" : "VEC3"
        },
        {
            "bufferView" : 4,
            "componentType" : 5126,
            "count" : 1922,
            "type" : "VEC3"
        },
        {
            "bufferView" : 5,
            "componentType" : 5123,
            "count" : 11520,
            "type" : "SCALAR"
        }
    ],
    "bufferViews" : [
        {
            "buffer" : 0,
            "byteLength" : 2304,
            "byteOffset" : 0
        },
        {
            "buffer" : 0,
            "byteLength" : 2304,
            "byteOffset" : 2304
        },
        {
            "buffer" : 0,
            "byteLength" : 1920,
            "byteOffset" : 4608
        },
        {
            "buffer" : 0,
            "byteLength" : 23064,
            "byteOffset" : 6528
        },
        {
            "buffer" : 0,
            "byteLength" : 23064,
            "byteOffset" : 29592
        },
        {
            "buffer" : 0,
            "byteLength" : 23040,
            "byteOffset" : 52656
        }
    ],
    "buffers" : [
        {
            "byteLength" : 75696,
            "uri" : "data:application/octet-stream;base64,"
        }
    ]
}
