{
    "asset" : {
        "generator" : "Khronos glTF Blender I/O v1.4.40",
        "version" : "2.0"
    },
    "scene" : 0,
    "scenes" : [
        {
            "name" : "Scene",
            "nodes" : [
                6,
                7,
                8,
                9
            ]
        }
    ],
    "nodes" : [
        {
            "mesh" : 0,
            "name" : "CTRL_Baseboard"
        },
        {
            "mesh" : 1,
            "name" : "CTRL_Hole"
        },
        {
            "mesh" : 2,
            "name" : "Handle_Back"
        },
        {
            "mesh" : 3,
            "name" : "Handle_Front"
        },
        {
            "children" : [
                2,
                3
            ],
            "mesh" : 4,
            "name" : "Door"
        },
        {
            "children" : [
                4
            ],
            "mesh" : 5,
            "name" : "DoorFrame"
        },
        {
            "children" : [
                0,
                1,
                5
            ],
            "name" : "Door_Group"
        },
        {
            "mesh" : 6,
            "name" : "Baseboard"
        },
        {
            "mesh" : 7,
            "name" : "Floor"
        },
        {
            "mesh" : 8,
            "name" : "room"
        }
    ],
    "materials" : [
        {
            "doubleSided" : true,
            "name" : "hidden_material",
            "pbrMetallicRoughness" : {
                "baseColorFactor" : [
                    0.800000011920929,
                    0.800000011920929,
                    0.800000011920929,
                    1
                ],
                "metallicFactor" : 0,
                "roughnessFactor" : 0.5
            }
        },
        {
            "doubleSided" : true,
            "name" : "Handle_material",
            "pbrMetallicRoughness" : {
                "baseColorFactor" : [
                    0.800000011920929,
                    0.800000011920929,
                    0.800000011920929,
                    1
                ],
                "metallicFactor" : 0,
                "roughnessFactor" : 0.5
            }
        },
        {
            "doubleSided" : true,
            "name" : "Door_material",
            "pbrMetallicRoughness" : {
                "baseColorFactor" : [
                    0.800000011920929,
                    0.800000011920929,
                    0.800000011920929,
                    1
                ],
                "metallicFactor" : 0,
                "roughnessFactor" : 0.5
            }
        },
        {
            "doubleSided" : true,
            "name" : "Baseboard_material",
            "pbrMetallicRoughness" : {
                "baseColorFactor" : [
                    0.800000011920929,
                    0.800000011920929,
                    0.800000011920929,
                    1
                ],
                "metallicFactor" : 0,
                "roughnessFactor" : 0.5
            }
        },
        {
            "doubleSided" : true,
            "name" : "Floor_material",
            "pbrMetallicRoughness" : {
                "baseColorFactor" : [
                    0.8000000715255737,
                    0.682886004447937,
                    0.26535937190055847,
                    1
                ],
                "metallicFactor" : 0,
                "roughnessFactor" : 0.4000000059604645
            }
        },
        {
            "doubleSided" : true,
            "name" : "Ceiling_material",
            "pbrMetallicRoughness" : {
                "baseColorFactor" : [
                    0.8000000715255737,
                    0.7473973035812378,
                    0.6786422729492188,
                    1
                ],
                "metallicFactor" : 0,
                "roughnessFactor" : 0.4000000059604645
            }
        },
        {
            "doubleSided" : true,
            "name" : "Wall_material",
            "pbrMetallicRoughness" : {
                "baseColorFactor" : [
                    0.8000000715255737,
                    0.7824888825416565,
                    0.7747946381568909,
                    1
                ],
                "metallicFactor" : 0,
                "roughnessFactor" : 0.4000000059604645
            }
        }
    ],
    "meshes" : [
        {
            "name" : "CTRL_Baseboard",
            "primitives" : [
                {
                    "attributes" : {
                        "POSITION" : 0,
                        "NORMAL" : 1
                    },
                    "indices" : 2,
                    "material" : 0
                }
            ]
        },
        {
            "name" : "CTRL_Hole",
            "primitives" : [
                {
                    "attributes" : {
                        "POSITION" : 3,
                        "NORMAL" : 4
                    },
                    "indices" : 5,
                    "material" : 0
                }
            ]
        },
        {
            "name" : "Handle_Back",
            "primitives" : [
                {
                    "attributes" : {
                        "POSITION" : 6,
                        "NORMAL" : 7
                    },
                    "indices" : 8,
                    "material" : 1
                }
            ]
        },
        {
            "name" : "Handle_Front",
            "primitives" : [
                {
                    "attributes" : {
                        "POSITION" : 9,
                        "NORMAL" : 10
                    },
                    "indices" : 8,
                    "material" : 1
                }
            ]
        },
        {
            "name" : "Door",
            "primitives" : [
                {
                    "attributes" : {
                        "POSITION" : 11,
                        "NORMAL" : 12
                    },
                    "indices" : 13,
                    "material" : 2
                }
            ]
        },
        {
            "name" : "DoorFrane",
            "primitives" : [
                {
                    "attributes" : {
                        "POSITION" : 14,
                        "NORMAL" : 15
                    },
                    "indices" : 16,
                    "material" : 2
                }
            ]
        },
        {
            "name" : "Baseboard",
            "primitives" : [
                {
                    "attributes" : {
                        "POSITION" : 17,
                        "NORMAL" : 18,
                        "TEXCOORD_0" : 19
                    },
                    "indices" : 20,
                    "material" : 3
                }
            ]
        },
        {
            "name" : "Floor",
            "primitives" : [
                {
                    "attributes" : {
                        "POSITION" : 21,
                        "NORMAL" : 22,
                        "TEXCOORD_0" : 23
                    },
                    "indices" : 24,
                    "material" : 4
                }
            ]
        },
        {
            "name" : "Ceiling",
            "primitives" : [
                {
                    "attributes" : {
                        "POSITION" : 25,
                        "NORMAL" : 26,
                        "TEXCOORD_0" : 27
                    },
                    "indices" : 24,
                    "material" : 5
                },
                {
                    "attributes" : {
                        "POSITION" : 28,
                        "NORMAL" : 29,
                        "TEXCOORD_0" : 30
                    },
                    "indices" : 31,
                    "material" : 6
                }
            ]
        }
    ],
    "accessors" : [
        {
            "bufferView" : 0,
            "componentType" : 5126,
            "count" : 8,
            "max" : [
                -2.1540348529815674,
                0.30000007152557373,
                0.4214513897895813
            ],
            "min" : [
                -2.554034948348999,
                -0.09999994188547134,
                -0.437418669462204
            ],
            "type" : "VEC3"
        },
        {
            "bufferView" : 1,
            "componentType" : 5126,
            "count" : 8,
            "type" : "VEC3"
        },
        {
            "bufferView" : 2,
            "componentType" : 5123,
            "count" : 12,
            "type" : "SCALAR"
        },
        {
            "bufferView" : 3,
            "componentType" : 5126,
            "count" : 24,
            "max" : [
                -2.2107017040252686,
                1.7979999780654907,
                0.4214513897895813
            ],
            "min" : [
                -2.7107017040252686,
                -0.0019999404903501272,
                -0.437418669462204
            ],
            "type" : "VEC3"
        },
        {
            "bufferView" : 4,
            "componentType" : 5126,
            "count" : 24,
            "type" : "VEC3"
        },
        {
            "bufferView" : 5,
            "componentType" : 5123,
            "count" : 36,
            "type" : "SCALAR"
        },
        {
            "bufferView" : 6,
            "componentType" : 5126,
            "count" : 146,
            "max" : [
                -2.2410850524902344,
                0.9434930682182312,
                0.32654237747192383
            ],
            "min" : [
                -2.3110899925231934,
                0.8564763069152832,
                0.1707201451063156
            ],
            "type" : "VEC3"
        },
        {
            "bufferView" : 7,
            "componentType" : 5126,
            "count" : 146,
            "type" : "VEC3"
        },
        {
            "bufferView" : 8,
            "componentType" : 5123,
            "count" : 792,
            "type" : "SCALAR"
        },
        {
            "bufferView" : 9,
            "componentType" : 5126,
            "count" : 146,
            "max" : [
                -2.3401131629943848,
                0.9435237646102905,
                0.32654237747192383
            ],
            "min" : [
                -2.4101181030273438,
                0.8565070033073425,
                0.1707201451063156
            ],
            "type" : "VEC3"
        },
        {
            "bufferView" : 10,
            "componentType" : 5126,
            "count" : 146,
            "type" : "VEC3"
        },
        {
            "bufferView" : 11,
            "componentType" : 5126,
            "count" : 24,
            "max" : [
                -2.3086013793945312,
                1.7139999866485596,
                0.3510240912437439
            ],
            "min" : [
                -2.3426015377044678,
                0.004000067710876465,
                -0.3669912815093994
            ],
            "type" : "VEC3"
        },
        {
            "bufferView" : 12,
            "componentType" : 5126,
            "count" : 24,
            "type" : "VEC3"
        },
        {
            "bufferView" : 13,
            "componentType" : 5123,
            "count" : 36,
            "type" : "SCALAR"
        },
        {
            "bufferView" : 14,
            "componentType" : 5126,
            "count" : 90,
            "max" : [
                -2.304034948348999,
                1.7999999523162842,
                0.4214514195919037
            ],
            "min" : [
                -2.384035110473633,
                5.960464477539063e-08,
                -0.4374186098575592
            ],
            "type" : "VEC3"
        },
        {
            "bufferView" : 15,
            "componentType" : 5126,
            "count" : 90,
            "type" : "VEC3"
        },
        {
            "bufferView" : 16,
            "componentType" : 5123,
            "count" : 141,
            "type" : "SCALAR"
        },
        {
            "bufferView" : 17,
            "componentType" : 5126,
            "count" : 56,
            "max" : [
                2.59468674659729,
                0.11999999731779099,
                2.302467107772827
            ],
            "min" : [
                -2.401254653930664,
                0,
                -2.2103803157806396
            ],
            "type" : "VEC3"
        },
        {
            "bufferView" : 18,
            "componentType" : 5126,
            "count" : 56,
            "type" : "VEC3"
        },
        {
            "bufferView" : 19,
            "componentType" : 5126,
            "count" : 56,
            "type" : "VEC2"
        },
        {
            "bufferView" : 20,
            "componentType" : 5123,
            "count" : 84,
            "type" : "SCALAR"
        },
        {
            "bufferView" : 21,
            "componentType" : 5126,
            "count" : 4,
            "max" : [
                2.59468674659729,
                0,
                2.2874670028686523
            ],
            "min" : [
                -2.40531325340271,
                0,
                -2.2125329971313477
            ],
            "type" : "VEC3"
        },
        {
            "bufferView" : 22,
            "componentType" : 5126,
            "count" : 4,
            "type" : "VEC3"
        },
        {
            "bufferView" : 23,
            "componentType" : 5126,
            "count" : 4,
            "type" : "VEC2"
        },
        {
            "bufferView" : 24,
            "componentType" : 5123,
            "count" : 6,
            "type" : "SCALAR"
        },
        {
            "bufferView" : 25,
            "componentType" : 5126,
            "count" : 4,
            "max" : [
                2.59468674659729,
                2.4000000953674316,
                2.2874670028686523
            ],
            "min" : [
                -2.40531325340271,
                2.4000000953674316,
                -2.2125329971313477
            ],
            "type" : "VEC3"
        },
        {
            "bufferView" : 26,
            "componentType" : 5126,
            "count" : 4,
            "type" : "VEC3"
        },
        {
            "bufferView" : 27,
            "componentType" : 5126,
            "count" : 4,
            "type" : "VEC2"
        },
        {
            "bufferView" : 28,
            "componentType" : 5126,
            "count" : 12,
            "max" : [
                2.59468674659729,
                2.4000000953674316,
                2.2874670028686523
            ],
            "min" : [
                -2.40531325340271,
                0,
                -2.2125329971313477
            ],
            "type" : "VEC3"
        },
        {
            "bufferView" : 29,
            "componentType" : 5126,
            "count" : 12,
            "type" : "VEC3"
        },
        {
            "bufferView" : 30,
            "componentType" : 5126,
            "count" : 12,
            "type" : "VEC2"
        },
        {
            "bufferView" : 31,
            "componentType" : 5123,
            "count" : 18,
            "type" : "SCALAR"
        }
    ],
    "bufferViews" : [
        {
            "buffer" : 0,
            "byteLength" : 96,
            "byteOffset" : 0
        },
        {
            "buffer" : 0,
            "byteLength" : 96,
            "byteOffset" : 96
        },
        {
            "buffer" : 0,
            "byteLength" : 24,
            "byteOffset" : 192
        },
        {
            "buffer" : 0,
            "byteLength" : 288,
            "byteOffset" : 216
        },
        {
            "buffer" : 0,
            "byteLength" : 288,
            "byteOffset" : 504
        },
        {
            "buffer" : 0,
            "byteLength" : 72,
            "byteOffset" : 792
        },
        {
            "buffer" : 0,
            "byteLength" : 1752,
            "byteOffset" : 864
        },
        {
            "buffer" : 0,
            "byteLength" : 1752,
            "byteOffset" : 2616
        },
        {
            "buffer" : 0,
            "byteLength" : 1584,
            "byteOffset" : 4368
        },
        {
            "buffer" : 0,
            "byteLength" : 1752,
            "byteOffset" : 5952
        },
        {
            "buffer" : 0,
            "byteLength" : 1752,
            "byteOffset" : 7704
        },
        {
            "buffer" : 0,
            "byteLength" : 288,
            "byteOffset" : 9456
        },
        {
            "buffer" : 0,
            "byteLength" : 288,
            "byteOffset" : 9744
        },
        {
            "buffer" : 0,
            "byteLength" : 72,
            "byteOffset" : 10032
        },
        {
            "buffer" : 0,
            "byteLength" : 1080,
            "byteOffset" : 10104
        },
        {
            "buffer" : 0,
            "byteLength" : 1080,
            "byteOffset" : 11184
        },
        {
            "buffer" : 0,
            "byteLength" : 282,
            "byteOffset" : 12264
        },
        {
            "buffer" : 0,
            "byteLength" : 672,
            "byteOffset" : 12548
        },
        {
            "buffer" : 0,
            "byteLength" : 672,
            "byteOffset" : 13220
        },
        {
            "buffer" : 0,
            "byteLength" : 448,
            "byteOffset" : 13892
        },
        {
            "buffer" : 0,
            "byteLength" : 168,
            "byteOffset" : 14340
        },
        {
            "buffer" : 0,
            "byteLength" : 48,
            "byteOffset" : 14508
        },
        {
            "buffer" : 0,
            "byteLength" : 48,
            "byteOffset" : 14556
        },
        {
            "buffer" : 0,
            "byteLength" : 32,
            "byteOffset" : 14604
        },
        {
            "buffer" : 0,
            "byteLength" : 12,
            "byteOffset" : 14636
        },
        {
            "buffer" : 0,
            "byteLength" : 48,
            "byteOffset" : 14648
        },
        {
            "buffer" : 0,
            "byteLength" : 48,
            "byteOffset" : 14696
        },
        {
            "buffer" : 0,
            "byteLength" : 32,
            "byteOffset" : 14744
        },
        {
            "buffer" : 0,
            "byteLength" : 144,
            "byteOffset" : 14776
        },
        {
            "buffer" : 0,
            "byteLength" : 144,
            "byteOffset" : 14920
        },
        {
            "buffer" : 0,
            "byteLength" : 96,
            "byteOffset" : 15064
        },
        {
            "buffer" : 0,
            "byteLength" : 36,
            "byteOffset" : 15160
        }
    ],
    "buffers" : [
        {
            "byteLength" : 15196,
            "uri" : "data:application/octet-stream;base64,"
        }
    ]
}
