{
    "asset" : {
        "generator" : "Khronos glTF Blender I/O v1.4.40",
        "version" : "2.0"
    },
    "scene" : 0,
    "scenes" : [
        {
            "name" : "Scene",
            "nodes" : [
                0,
                1
            ]
        }
    ],
    "nodes" : [
        {
            "mesh" : 0,
            "name" : "table"
        },
        {
            "mesh" : 1,
            "name" : "table.001"
        }
    ],
    "meshes" : [
        {
            "name" : "Cube.001",
            "primitives" : [
                {
                    "attributes" : {
                        "POSITION" : 0,
                        "NORMAL" : 1,
                        "TEXCOORD_0" : 2
                    },
                    "indices" : 3
                }
            ]
        },
        {
            "name" : "Cube.010",
            "primitives" : [
                {
                    "attributes" : {
                        "POSITION" : 4,
                        "NORMAL" : 5,
                        "TEXCOORD_0" : 6
                    },
                    "indices" : 7
                }
            ]
        }
    ],
    "accessors" : [
        {
            "bufferView" : 0,
            "componentType" : 5126,
            "count" : 792,
            "max" : [
                -1.5498666763305664,
                0.6951229572296143,
                1.7069541215896606
            ],
            "min" : [
                -2.40183687210083,
                -0.007803082466125488,
                0.854983925819397
            ],
            "type" : "VEC3"
        },
        {
            "bufferView" : 1,
            "componentType" : 5126,
            "count" : 792,
            "type" : "VEC3"
        },
        {
            "bufferView" : 2,
            "componentType" : 5126,
            "count" : 792,
            "type" : "VEC2"
        },
        {
            "bufferView" : 3,
            "componentType" : 5123,
            "count" : 1092,
            "type" : "SCALAR"
        },
        {
            "bufferView" : 4,
            "componentType" : 5126,
            "count" : 792,
            "max" : [
                -1.4253010749816895,
                0.6951229572296143,
                -0.9029456377029419
            ],
            "min" : [
                -2.277271270751953,
                -0.007803082466125488,
                -1.7549158334732056
            ],
            "type" : "VEC3"
        },
        {
            "bufferView" : 5,
            "componentType" : 5126,
            "count" : 792,
            "type" : "VEC3"
        },
        {
            "bufferView" : 6,
            "componentType" : 5126,
            "count" : 792,
            "type" : "VEC2"
        },
        {
            "bufferView" : 7,
            "componentType" : 5123,
            "count" : 1092,
            "type" : "SCALAR"
        }
    ],
    "bufferViews" : [
        {
            "buffer" : 0,
            "byteLength" : 9504,
            "byteOffset" : 0
        },
        {
            "buffer" : 0,
            "byteLength" : 9504,
            "byteOffset" : 9504
        },
        {
            "buffer" : 0,
            "byteLength" : 6336,
            "byteOffset" : 19008
        },
        {
            "buffer" : 0,
            "byteLength" : 2184,
            "byteOffset" : 25344
        },
        {
            "buffer" : 0,
            "byteLength" : 9504,
            "byteOffset" : 27528
        },
        {
            "buffer" : 0,
            "byteLength" : 9504,
            "byteOffset" : 37032
        },
        {
            "buffer" : 0,
            "byteLength" : 6336,
            "byteOffset" : 46536
        },
        {
            "buffer" : 0,
            "byteLength" : 2184,
            "byteOffset" : 52872
        }
    ],
    "buffers" : [
        {
            "byteLength" : 55056,
            "uri" : "data:application/octet-stream;base64,"
        }
    ]
}
